<svg width="35" height="36" viewBox="0 0 35 36" fill="none" xmlns="http://www.w3.org/2000/svg">
<path d="M10.5 9.22021C10.0359 9.22021 9.59075 9.40459 9.26256 9.73278C8.93437 10.061 8.75 10.5061 8.75 10.9702C8.75 11.4343 8.93437 11.8795 9.26256 12.2077C9.59075 12.5358 10.0359 12.7202 10.5 12.7202H24.5C24.9641 12.7202 25.4093 12.5358 25.7374 12.2077C26.0656 11.8795 26.25 11.4343 26.25 10.9702C26.25 10.5061 26.0656 10.061 25.7374 9.73278C25.4093 9.40459 24.9641 9.22021 24.5 9.22021H10.5ZM8.75 18C8.75 17.5358 8.93437 17.0907 9.26256 16.7625C9.59075 16.4343 10.0359 16.25 10.5 16.25H24.5C24.9641 16.25 25.4093 16.4343 25.7374 16.7625C26.0656 17.0907 26.25 17.5358 26.25 18C26.25 18.4641 26.0656 18.9092 25.7374 19.2374C25.4093 19.5656 24.9641 19.75 24.5 19.75H10.5C10.0359 19.75 9.59075 19.5656 9.26256 19.2374C8.93437 18.9092 8.75 18.4641 8.75 18ZM10.5 23.2797C10.0359 23.2797 9.59075 23.4641 9.26256 23.7923C8.93437 24.1205 8.75 24.5656 8.75 25.0297C8.75 25.4938 8.93437 25.939 9.26256 26.2672C9.59075 26.5953 10.0359 26.7797 10.5 26.7797H24.5C24.9641 26.7797 25.4093 26.5953 25.7374 26.2672C26.0656 25.939 26.25 25.4938 26.25 25.0297C26.25 24.5656 26.0656 24.1205 25.7374 23.7923C25.4093 23.4641 24.9641 23.2797 24.5 23.2797H10.5Z" fill="#D71918"/>
<path fill-rule="evenodd" clip-rule="evenodd" d="M35 18C35 27.6652 27.1652 35.5 17.5 35.5C7.83475 35.5 0 27.6652 0 18C0 8.33475 7.83475 0.5 17.5 0.5C27.1652 0.5 35 8.33475 35 18ZM31.5 18C31.5 21.713 30.025 25.274 27.3995 27.8995C24.774 30.525 21.213 32 17.5 32C13.787 32 10.226 30.525 7.60051 27.8995C4.975 25.274 3.5 21.713 3.5 18C3.5 14.287 4.975 10.726 7.60051 8.10051C10.226 5.475 13.787 4 17.5 4C21.213 4 24.774 5.475 27.3995 8.10051C30.025 10.726 31.5 14.287 31.5 18Z" fill="#D71918"/>
</svg>
